<?xml version="1.0" encoding="utf-8"?>
<svg version="1.1" xmlns="http://www.w3.org/2000/svg" xmlns:xlink="http://www.w3.org/1999/xlink" x="0px" y="0px"
	 viewBox="0 0 840 160" style="enable-background:new 0 0 840 160;" xml:space="preserve">
<g>
	<path d="M4.4,31.1H36c8.6,0,15.4,1.7,20.3,5.2c4.9,3.4,7.4,8.8,7.4,16.2c0,4.6-1.2,8.3-3.7,11.3c-2.5,3-5.8,5.1-10,6.5
		c6.2,1.1,11.2,3.3,14.8,6.7c3.6,3.3,5.4,8.1,5.4,14.2c0,6.6-2.4,11.9-7.3,15.8c-4.8,3.9-12,5.8-21.4,5.8H4.4V31.1z M33.7,65.5
		c5.2,0,9.3-0.9,12.4-2.8c3.1-1.8,4.6-4.8,4.6-8.9c0-4.5-1.5-7.6-4.4-9.4c-2.9-1.8-6.9-2.6-12.1-2.6H16.9v23.6H33.7z M39.8,101.9
		c11.4,0,17-4.1,17-12.2c0-4.7-1.7-8.1-5-10.1c-3.4-2-8-3-14-3H16.9v25.3H39.8z"/>
	<path d="M87.8,53.2c3-1.3,6.6-2.3,10.7-3.1c4.1-0.8,8.2-1.2,12.2-1.2c4.5,0,8.3,0.6,11.5,1.9c3.2,1.2,5.8,2.9,7.9,5
		c2,2.1,3.5,4.6,4.5,7.6c1,2.9,1.4,6.1,1.4,9.4v40h-12.5v-6.8c-2.2,2.1-5,3.9-8.2,5.6c-3.2,1.6-7.2,2.5-11.8,2.5
		c-6.8,0-12.1-1.7-15.8-5.1c-3.7-3.4-5.6-8-5.6-13.7c0-3.8,0.7-7,2.2-9.8s3.5-5.1,6.1-6.9c2.6-1.8,5.7-3.2,9.4-4.1
		c3.6-0.9,7.6-1.4,11.9-1.4c2.2,0,4.3,0.1,6.3,0.3c2,0.2,3.8,0.5,5.6,0.9v-0.7c0-9.2-4.6-13.8-13.8-13.8c-3.4,0-6.8,0.4-10.3,1.2
		c-3.5,0.8-6.6,1.9-9.4,3.2L87.8,53.2z M94.6,93.7c0,3.4,1.2,6,3.5,7.7c2.3,1.7,5.4,2.5,9.2,2.5c3.8,0,7-0.7,9.7-2.1
		c2.7-1.4,4.9-2.8,6.5-4.3V83.1c-1.2-0.3-2.6-0.6-4.3-0.8c-1.6-0.2-3.3-0.3-5.1-0.3c-2.8,0-5.4,0.2-7.7,0.7
		c-2.4,0.5-4.4,1.2-6.2,2.2c-1.8,1-3.1,2.2-4.1,3.7C95.1,90,94.6,91.7,94.6,93.7z"/>
	<path d="M169.3,49.9v9.7c2.3-3.4,5.4-6,9.2-7.9c3.8-1.9,8.2-2.9,13.3-2.9c4.2,0,7.9,0.7,11,2.2c3.1,1.4,5.6,3.4,7.6,5.9
		c2,2.5,3.5,5.4,4.4,8.8s1.4,7,1.4,10.9v36.1h-12.5V78.5c0-5.4-1.3-9.7-3.8-13.1c-2.6-3.4-6.6-5-12.1-5c-2.5,0-4.7,0.4-6.8,1.1
		c-2,0.8-3.8,1.8-5.3,3.1c-1.5,1.3-2.8,2.7-3.9,4.4c-1.1,1.6-1.9,3.3-2.5,5v38.8h-12.5V49.9H169.3z"/>
	<path d="M237.7,53.2c3-1.3,6.6-2.3,10.7-3.1c4.1-0.8,8.2-1.2,12.2-1.2c4.5,0,8.3,0.6,11.5,1.9c3.2,1.2,5.8,2.9,7.9,5
		c2,2.1,3.5,4.6,4.5,7.6c1,2.9,1.4,6.1,1.4,9.4v40h-12.5v-6.8c-2.2,2.1-5,3.9-8.2,5.6c-3.2,1.6-7.2,2.5-11.8,2.5
		c-6.8,0-12.1-1.7-15.8-5.1c-3.7-3.4-5.6-8-5.6-13.7c0-3.8,0.7-7,2.2-9.8s3.5-5.1,6.1-6.9c2.6-1.8,5.7-3.2,9.4-4.1
		c3.6-0.9,7.6-1.4,11.9-1.4c2.2,0,4.3,0.1,6.3,0.3c2,0.2,3.8,0.5,5.6,0.9v-0.7c0-9.2-4.6-13.8-13.8-13.8c-3.4,0-6.8,0.4-10.3,1.2
		c-3.5,0.8-6.6,1.9-9.4,3.2L237.7,53.2z M244.5,93.7c0,3.4,1.2,6,3.5,7.7c2.3,1.7,5.4,2.5,9.2,2.5c3.8,0,7-0.7,9.7-2.1
		c2.7-1.4,4.9-2.8,6.5-4.3V83.1c-1.2-0.3-2.6-0.6-4.3-0.8c-1.6-0.2-3.3-0.3-5.1-0.3c-2.8,0-5.4,0.2-7.7,0.7
		c-2.4,0.5-4.4,1.2-6.2,2.2c-1.8,1-3.1,2.2-4.1,3.7C245,90,244.5,91.7,244.5,93.7z"/>
	<path d="M319.2,49.9v9.7c2.3-3.4,5.4-6,9.2-7.9c3.8-1.9,8.2-2.9,13.3-2.9c4.2,0,7.9,0.7,11,2.2c3.1,1.4,5.6,3.4,7.6,5.9
		c2,2.5,3.5,5.4,4.4,8.8s1.4,7,1.4,10.9v36.1h-12.5V78.5c0-5.4-1.3-9.7-3.8-13.1c-2.6-3.4-6.6-5-12.1-5c-2.5,0-4.7,0.4-6.8,1.1
		c-2,0.8-3.8,1.8-5.3,3.1c-1.5,1.3-2.8,2.7-3.9,4.4c-1.1,1.6-1.9,3.3-2.5,5v38.8h-12.5V49.9H319.2z"/>
	<path d="M387.6,53.2c3-1.3,6.6-2.3,10.7-3.1c4.1-0.8,8.2-1.2,12.2-1.2c4.5,0,8.3,0.6,11.5,1.9c3.2,1.2,5.8,2.9,7.9,5
		c2,2.1,3.5,4.6,4.5,7.6c1,2.9,1.4,6.1,1.4,9.4v40h-12.5v-6.8c-2.2,2.1-5,3.9-8.2,5.6s-7.2,2.5-11.8,2.5c-6.8,0-12.1-1.7-15.8-5.1
		c-3.7-3.4-5.6-8-5.6-13.7c0-3.8,0.7-7,2.2-9.8s3.5-5.1,6.1-6.9c2.6-1.8,5.7-3.2,9.4-4.1c3.6-0.9,7.6-1.4,11.9-1.4
		c2.2,0,4.3,0.1,6.3,0.3c2,0.2,3.8,0.5,5.6,0.9v-0.7c0-9.2-4.6-13.8-13.8-13.8c-3.4,0-6.8,0.4-10.3,1.2c-3.5,0.8-6.6,1.9-9.4,3.2
		L387.6,53.2z M394.4,93.7c0,3.4,1.2,6,3.5,7.7s5.4,2.5,9.2,2.5c3.8,0,7-0.7,9.7-2.1c2.7-1.4,4.9-2.8,6.5-4.3V83.1
		c-1.2-0.3-2.6-0.6-4.3-0.8c-1.6-0.2-3.3-0.3-5.1-0.3c-2.8,0-5.4,0.2-7.7,0.7c-2.4,0.5-4.4,1.2-6.2,2.2c-1.8,1-3.1,2.2-4.1,3.7
		C394.9,90,394.4,91.7,394.4,93.7z"/>
	<path d="M485,94.8c1.4,0.9,3,1.8,4.9,2.6c1.9,0.9,3.9,1.7,6.2,2.4c2.2,0.7,4.6,1.3,7.1,1.8c2.5,0.5,5.1,0.7,7.7,0.7
		c6,0,10.8-1.1,14.5-3.2c3.7-2.2,5.5-5.3,5.5-9.4c0-2.9-1.1-5.2-3.3-7c-2.2-1.8-5.8-3.2-10.9-4.4l-14.6-3.6
		c-6.9-1.6-12-4.2-15.4-7.8c-3.4-3.6-5-8.1-5-13.4c0-3.2,0.6-6.2,1.9-9.1c1.3-2.8,3.2-5.3,5.8-7.5c2.6-2.2,5.8-3.9,9.8-5.1
		c4-1.2,8.7-1.9,14.1-1.9c2.9,0,5.7,0.2,8.5,0.5c2.8,0.4,5.4,0.8,7.8,1.4c2.4,0.6,4.7,1.3,6.8,2.1c2.1,0.8,3.9,1.6,5.5,2.4L538.3,48
		c-1.4-0.9-3.1-1.7-5.1-2.5c-2-0.8-4.1-1.4-6.4-2c-2.3-0.6-4.6-1.1-7-1.4c-2.4-0.4-4.7-0.5-7-0.5c-6.4,0-11,1.1-13.9,3.2
		c-2.8,2.1-4.3,4.7-4.3,7.7c0,2.8,0.9,5,2.8,6.5c1.9,1.6,4.7,2.9,8.5,3.9l15.8,4.1c7.3,1.9,12.8,4.6,16.5,8c3.7,3.4,5.6,8,5.6,13.8
		c0,3.8-0.8,7.2-2.5,10.3c-1.6,3.1-3.9,5.7-6.9,7.9c-3,2.2-6.5,3.9-10.6,5.1c-4.1,1.2-8.5,1.8-13.3,1.8c-3,0-5.9-0.2-8.8-0.7
		c-2.9-0.4-5.6-1-8.1-1.7c-2.5-0.7-4.8-1.5-6.8-2.3s-3.7-1.6-5-2.3L485,94.8z"/>
	<path d="M623.4,81.5c0,4.7-0.7,9.1-2.2,13s-3.5,7.4-6.1,10.3c-2.6,2.9-5.8,5.1-9.5,6.7c-3.7,1.6-7.8,2.4-12.2,2.4
		c-4.3,0-8.2-0.8-11.5-2.3c-3.4-1.5-6.2-3.4-8.5-5.8v29.4h-12.5V49.9h12.5v7.4c2.2-2.4,5-4.4,8.3-6.1c3.3-1.6,7.2-2.5,11.7-2.5
		c4.5,0,8.6,0.8,12.2,2.4c3.7,1.6,6.8,3.8,9.5,6.7c2.6,2.9,4.7,6.3,6.1,10.3C622.6,72.3,623.4,76.7,623.4,81.5z M610.8,81.5
		c0-3.2-0.5-6.1-1.4-8.8c-1-2.7-2.3-5-4.1-6.9c-1.8-1.9-4-3.4-6.5-4.4c-2.6-1-5.4-1.6-8.5-1.6c-3.6,0-6.9,0.8-9.9,2.3
		c-3,1.5-5.3,3.2-6.9,5v28.8c1.8,1.8,4.1,3.5,7.1,4.9c3,1.4,6.2,2.2,9.7,2.2c3.1,0,5.9-0.5,8.5-1.6c2.5-1,4.7-2.5,6.5-4.4
		c1.8-1.9,3.2-4.1,4.2-6.8C610.3,87.6,610.8,84.7,610.8,81.5z"/>
	<path d="M641.5,53.2c3-1.3,6.6-2.3,10.7-3.1c4.1-0.8,8.2-1.2,12.2-1.2c4.5,0,8.3,0.6,11.5,1.9c3.2,1.2,5.8,2.9,7.9,5
		c2,2.1,3.5,4.6,4.5,7.6c1,2.9,1.4,6.1,1.4,9.4v40h-12.5v-6.8c-2.2,2.1-5,3.9-8.2,5.6c-3.2,1.6-7.2,2.5-11.8,2.5
		c-6.8,0-12.1-1.7-15.8-5.1c-3.7-3.4-5.6-8-5.6-13.7c0-3.8,0.7-7,2.2-9.8c1.4-2.8,3.5-5.1,6.1-6.9c2.6-1.8,5.7-3.2,9.4-4.1
		c3.6-0.9,7.6-1.4,11.9-1.4c2.2,0,4.3,0.1,6.3,0.3c2,0.2,3.8,0.5,5.6,0.9v-0.7c0-9.2-4.6-13.8-13.8-13.8c-3.4,0-6.8,0.4-10.3,1.2
		c-3.5,0.8-6.6,1.9-9.4,3.2L641.5,53.2z M648.3,93.7c0,3.4,1.2,6,3.5,7.7c2.3,1.7,5.4,2.5,9.2,2.5c3.8,0,7-0.7,9.7-2.1
		c2.7-1.4,4.9-2.8,6.5-4.3V83.1c-1.2-0.3-2.6-0.6-4.3-0.8c-1.6-0.2-3.3-0.3-5.1-0.3c-2.8,0-5.4,0.2-7.7,0.7
		c-2.4,0.5-4.4,1.2-6.2,2.2c-1.8,1-3.1,2.2-4.1,3.7C648.8,90,648.3,91.7,648.3,93.7z"/>
	<path d="M706.4,81.3c0-4.7,0.8-9.1,2.5-13.1c1.6-4,3.9-7.5,6.9-10.4c3-2.9,6.5-5.2,10.6-6.9c4.1-1.7,8.7-2.5,13.6-2.5
		c4.8,0,9.2,0.8,13.2,2.3c4,1.6,7.5,3.7,10.4,6.3l-6.2,9.2c-1.9-1.8-4.3-3.4-7-4.6c-2.8-1.2-6.1-1.8-9.9-1.8c-3.2,0-6.1,0.5-8.7,1.6
		c-2.6,1.1-4.8,2.6-6.7,4.4c-1.9,1.9-3.3,4.1-4.4,6.8c-1,2.6-1.6,5.5-1.6,8.6s0.5,6,1.6,8.6c1,2.6,2.5,4.9,4.4,6.8
		c1.9,1.9,4.1,3.4,6.7,4.5c2.6,1.1,5.5,1.6,8.7,1.6c3.8,0,7.1-0.6,9.9-1.8s5.1-2.7,7-4.6l6.2,9.2c-3,2.6-6.4,4.7-10.4,6.3
		c-4,1.6-8.4,2.3-13.2,2.3c-5,0-9.5-0.8-13.6-2.5c-4.1-1.7-7.7-4-10.6-7c-3-3-5.3-6.5-6.9-10.5C707.2,90.4,706.4,86,706.4,81.3z"/>
	<path d="M836,105.9c-3.3,2.6-7.1,4.7-11.5,6.2c-4.4,1.5-9.2,2.3-14.5,2.3c-5.9,0-11-0.9-15.3-2.6c-4.3-1.7-7.8-4.1-10.6-7
		c-2.8-3-4.8-6.4-6.1-10.4c-1.3-4-2-8.3-2-12.8c0-4.6,0.8-9,2.3-13c1.5-4,3.7-7.6,6.6-10.6c2.9-3,6.3-5.4,10.4-7.1
		c4-1.7,8.6-2.6,13.6-2.6c4.8,0,8.9,0.7,12.4,2c3.5,1.4,6.4,3.2,8.7,5.6c2.3,2.4,4,5.2,5.2,8.3c1.1,3.2,1.7,6.5,1.7,10.1
		c0,1.8-0.1,3.9-0.4,6.1c-0.2,2.2-0.6,3.9-1,5h-46.7c0.6,5.5,2.7,10,6.1,13.3c3.4,3.4,8.5,5,15.4,5c4.3,0,8.3-0.7,11.8-2.1
		c3.6-1.4,6.5-3,8.9-4.9L836,105.9z M824.6,75.7c0.1-0.5,0.1-1,0.2-1.6c0-0.6,0.1-1.2,0.1-1.7c0-1.8-0.3-3.5-1-5.2
		c-0.6-1.7-1.6-3.1-2.9-4.4c-1.3-1.2-3-2.2-5-3c-2-0.8-4.5-1.1-7.3-1.1c-3,0-5.6,0.5-7.9,1.4c-2.3,0.9-4.3,2.2-5.9,3.7
		c-1.6,1.6-2.9,3.4-3.9,5.5c-1,2.1-1.6,4.2-1.8,6.5H824.6z"/>
</g>
</svg>
